# xmcd CD database file
#
# Track frame offsets:
#	150
#	44230
#	81111
#	134448
#	170093
#	194220
#
# Disc length: 3230 seconds
#
# Revision: 0
# Processed by: cddbd v1.5.1PL0 Copyright (c) Steve Scherf et al.
# Submitted via: CDex 1.51
#
DISCID=5e0c9c06
DTITLE=Brian Carter - Heart Of The Circle
DYEAR=1900
DGENRE=New Age
TTITLE0=In The Dead Of The Night
TTITLE1=The Lady Of Glassel
TTITLE2=The Healing Circle
TTITLE3=The Circle Of Knowledge
TTITLE4=Alone At The Crossroads
TTITLE5=Brimstone
EXTD=
EXTT0=
EXTT1=
EXTT2=
EXTT3=
EXTT4=
EXTT5=
PLAYORDER=
